<svg width="101" height="27" viewBox="0 0 101 27" fill="none" xmlns="http://www.w3.org/2000/svg">
<path d="M16.2439 12.7282C16.2172 9.83568 18.673 8.42848 18.7853 8.36297C17.3945 6.38588 15.2387 6.11575 14.4812 6.09421C12.6707 5.90844 10.9144 7.15051 9.99212 7.15051C9.0514 7.15051 7.63113 6.11216 6.1004 6.14267C4.13062 6.17229 2.28785 7.28423 1.27719 9.01092C-0.808579 12.5316 0.747001 17.7054 2.74532 20.5512C3.74494 21.945 4.91301 23.5011 6.4419 23.4464C7.93764 23.3863 8.49637 22.5166 10.3014 22.5166C12.0898 22.5166 12.6145 23.4464 14.1738 23.4114C15.7791 23.3863 16.7897 22.0114 17.7544 20.6051C18.9095 19.0076 19.3735 17.4344 19.3919 17.3536C19.3541 17.3411 16.2743 16.195 16.2439 12.7282Z" fill="white"/>
<path d="M13.2984 4.22213C14.1029 3.24122 14.6533 1.90671 14.5005 0.55246C13.3362 0.602717 11.88 1.33773 11.0414 2.2971C10.2995 3.1425 9.63682 4.52816 9.80802 5.83126C11.116 5.92639 12.459 5.18779 13.2984 4.22213Z" fill="white"/>
<path d="M33.3578 3.65135C33.3578 4.70765 33.0328 5.50279 32.3839 6.03677C31.7828 6.52947 30.9287 6.77627 29.8223 6.77627C29.2737 6.77627 28.8042 6.75294 28.4112 6.70627V0.934767C28.9239 0.853996 29.4762 0.812714 30.0726 0.812714C31.1266 0.812714 31.9209 1.03618 32.4566 1.48311C33.0568 1.98837 33.3578 2.71082 33.3578 3.65135ZM32.3406 3.67737C32.3406 2.99262 32.1547 2.46761 31.7828 2.10145C31.411 1.73619 30.8679 1.55311 30.1527 1.55311C29.849 1.55311 29.5903 1.57285 29.3758 1.61414V6.00177C29.4946 6.01972 29.7118 6.0278 30.0275 6.0278C30.7657 6.0278 31.3355 5.82766 31.7368 5.4274C32.1381 5.02714 32.3406 4.4438 32.3406 3.67737Z" fill="white"/>
<path d="M38.7508 4.57394C38.7508 5.2246 38.5602 5.75768 38.1791 6.17589C37.7797 6.60577 37.2504 6.82026 36.5895 6.82026C35.9525 6.82026 35.4454 6.61475 35.0671 6.20192C34.6897 5.78999 34.501 5.27037 34.501 4.64395C34.501 3.98881 34.6952 3.45124 35.0855 3.03392C35.4757 2.61661 36.0004 2.4075 36.6613 2.4075C37.2983 2.4075 37.81 2.61302 38.1976 3.02495C38.5657 3.42521 38.7508 3.94214 38.7508 4.57394ZM37.7502 4.60446C37.7502 4.21407 37.6637 3.87932 37.4916 3.60021C37.2891 3.26277 37.001 3.09405 36.6263 3.09405C36.2388 3.09405 35.9443 3.26277 35.7418 3.60021C35.5687 3.87932 35.4831 4.21945 35.4831 4.62151C35.4831 5.0119 35.5696 5.34665 35.7418 5.62576C35.9507 5.9632 36.2416 6.13192 36.6171 6.13192C36.9853 6.13192 37.2743 5.9605 37.4824 5.61678C37.6609 5.33229 37.7502 4.99485 37.7502 4.60446Z" fill="white"/>
<path d="M45.9819 2.49365L44.6242 6.72423H43.7406L43.1782 4.88715C43.0355 4.42855 42.9195 3.97265 42.8293 3.52034H42.8118C42.728 3.98521 42.6121 4.44022 42.463 4.88715L41.8656 6.72423H40.9718L39.6951 2.49365H40.6865L41.1771 4.50484C41.2958 4.98049 41.3934 5.4337 41.4716 5.86268H41.4891C41.5609 5.50908 41.6796 5.05856 41.8472 4.51381L42.463 2.49455H43.249L43.839 4.47073C43.9817 4.95267 44.0977 5.41665 44.187 5.86358H44.2137C44.279 5.42831 44.3775 4.96433 44.5082 4.47073L45.0347 2.49455H45.9819V2.49365Z" fill="white"/>
<path d="M50.9828 6.72424H50.0181V4.30113C50.0181 3.55445 49.7273 3.18111 49.1437 3.18111C48.8574 3.18111 48.6264 3.28342 48.4469 3.48894C48.2693 3.69445 48.1791 3.93676 48.1791 4.21408V6.72335H47.2144V3.70253C47.2144 3.33098 47.2025 2.92803 47.1794 2.49187H48.0272L48.0723 3.15329H48.099C48.2113 2.94777 48.3788 2.77816 48.5988 2.64264C48.8602 2.48469 49.1529 2.40482 49.4732 2.40482C49.8782 2.40482 50.2151 2.53225 50.483 2.78803C50.8162 3.10124 50.9828 3.56881 50.9828 4.18984V6.72424Z" fill="white"/>
<path d="M53.6429 6.72422H52.6792V0.55246H53.6429V6.72422Z" fill="white"/>
<path d="M59.3222 4.57394C59.3222 5.2246 59.1316 5.75768 58.7506 6.17589C58.3511 6.60577 57.8209 6.82026 57.1609 6.82026C56.523 6.82026 56.0159 6.61475 55.6385 6.20192C55.2611 5.78999 55.0724 5.27037 55.0724 4.64395C55.0724 3.98881 55.2666 3.45124 55.6569 3.03392C56.0472 2.61661 56.5718 2.4075 57.2318 2.4075C57.8697 2.4075 58.3805 2.61302 58.769 3.02495C59.1371 3.42521 59.3222 3.94214 59.3222 4.57394ZM58.3207 4.60446C58.3207 4.21407 58.2342 3.87932 58.062 3.60021C57.8605 3.26277 57.5714 3.09405 57.1977 3.09405C56.8093 3.09405 56.5148 3.26277 56.3132 3.60021C56.1401 3.87932 56.0545 4.21945 56.0545 4.62151C56.0545 5.0119 56.141 5.34665 56.3132 5.62576C56.5221 5.9632 56.813 6.13192 57.1885 6.13192C57.5567 6.13192 57.8448 5.9605 58.0528 5.61678C58.2323 5.33229 58.3207 4.99485 58.3207 4.60446Z" fill="white"/>
<path d="M63.9907 6.72423H63.1246L63.0528 6.23692H63.0261C62.7297 6.62551 62.3072 6.82026 61.7586 6.82026C61.349 6.82026 61.0176 6.69193 60.7682 6.43705C60.5417 6.20551 60.4285 5.91743 60.4285 5.5755C60.4285 5.05857 60.6494 4.66459 61.094 4.39176C61.5377 4.11894 62.1618 3.98522 62.9653 3.9915V3.91252C62.9653 3.35521 62.6652 3.077 62.0642 3.077C61.6362 3.077 61.2588 3.182 60.9329 3.39021L60.7369 2.77276C61.14 2.52955 61.638 2.4075 62.2253 2.4075C63.3593 2.4075 63.9281 2.99084 63.9281 4.15753V5.7155C63.9281 6.1382 63.9493 6.47474 63.9907 6.72423ZM62.9892 5.27037V4.61792C61.9252 4.59997 61.3932 4.88446 61.3932 5.4705C61.3932 5.69127 61.4539 5.8564 61.5782 5.96679C61.7024 6.07717 61.8608 6.13192 62.0495 6.13192C62.2612 6.13192 62.4591 6.0664 62.6395 5.93627C62.8208 5.80525 62.9322 5.63922 62.9736 5.4355C62.9837 5.38973 62.9892 5.33408 62.9892 5.27037Z" fill="white"/>
<path d="M69.4721 6.72422H68.6161L68.571 6.04485H68.5443C68.2709 6.56178 67.8051 6.82025 67.1507 6.82025C66.6279 6.82025 66.1925 6.62012 65.8473 6.21986C65.5021 5.81959 65.33 5.29997 65.33 4.66188C65.33 3.97713 65.5169 3.4225 65.8924 2.99891C66.256 2.60403 66.7015 2.40659 67.2317 2.40659C67.8143 2.40659 68.2221 2.59775 68.4541 2.98096H68.4725V0.55246H69.438V5.58446C69.438 5.99639 69.4491 6.37601 69.4721 6.72422ZM68.4725 4.94009V4.2347C68.4725 4.11264 68.4633 4.01392 68.4458 3.93854C68.3915 3.71238 68.2746 3.52212 68.0969 3.36866C67.9174 3.21519 67.7011 3.13801 67.4517 3.13801C67.0918 3.13801 66.8101 3.27712 66.603 3.55622C66.3977 3.83533 66.2937 4.19162 66.2937 4.62688C66.2937 5.04509 66.3922 5.38433 66.5901 5.64549C66.7991 5.9237 67.0807 6.0628 67.4333 6.0628C67.7499 6.0628 68.003 5.94703 68.1954 5.71459C68.3813 5.5001 68.4725 5.24163 68.4725 4.94009Z" fill="white"/>
<path d="M77.7222 4.57394C77.7222 5.2246 77.5316 5.75768 77.1506 6.17589C76.7511 6.60577 76.2228 6.82026 75.5609 6.82026C74.9249 6.82026 74.4177 6.61475 74.0385 6.20192C73.6611 5.78999 73.4724 5.27037 73.4724 4.64395C73.4724 3.98881 73.6666 3.45124 74.0569 3.03392C74.4472 2.61661 74.9718 2.4075 75.6337 2.4075C76.2697 2.4075 76.7824 2.61302 77.169 3.02495C77.5372 3.42521 77.7222 3.94214 77.7222 4.57394ZM76.7226 4.60446C76.7226 4.21407 76.636 3.87932 76.4639 3.60021C76.2605 3.26277 75.9733 3.09405 75.5978 3.09405C75.2112 3.09405 74.9166 3.26277 74.7132 3.60021C74.5401 3.87932 74.4545 4.21945 74.4545 4.62151C74.4545 5.0119 74.5411 5.34665 74.7132 5.62576C74.9221 5.9632 75.213 6.13192 75.5886 6.13192C75.9567 6.13192 76.2467 5.9605 76.4547 5.61678C76.6324 5.33229 76.7226 4.99485 76.7226 4.60446Z" fill="white"/>
<path d="M82.9089 6.72424H81.9452V4.30113C81.9452 3.55445 81.6543 3.18111 81.0698 3.18111C80.7836 3.18111 80.5525 3.28342 80.374 3.48894C80.1954 3.69445 80.1061 3.93676 80.1061 4.21408V6.72335H79.1406V3.70253C79.1406 3.33098 79.1295 2.92803 79.1065 2.49187H79.9533L79.9984 3.15329H80.0251C80.1383 2.94777 80.3059 2.77816 80.5249 2.64264C80.7873 2.48469 81.0791 2.40482 81.4003 2.40482C81.8044 2.40482 82.1413 2.53225 82.4091 2.78803C82.7432 3.10124 82.9089 3.56881 82.9089 4.18984V6.72424Z" fill="white"/>
<path d="M89.401 3.19817H88.3388V5.25333C88.3388 5.77564 88.5275 6.0368 88.9012 6.0368C89.0742 6.0368 89.2178 6.02244 89.331 5.99283L89.3559 6.7063C89.1654 6.7763 88.915 6.8113 88.6066 6.8113C88.2256 6.8113 87.9292 6.69822 87.7147 6.47207C87.4993 6.24591 87.3926 5.86539 87.3926 5.33141V3.19817H86.7584V2.49367H87.3926V1.71827L88.3379 1.44006V2.49277H89.4001V3.19817H89.401Z" fill="white"/>
<path d="M94.5077 6.72422H93.5421V4.31906C93.5421 3.56071 93.2513 3.18109 92.6686 3.18109C92.2213 3.18109 91.9157 3.40097 91.7482 3.84072C91.7196 3.93315 91.703 4.04623 91.703 4.17905V6.72332H90.7393V0.55246H91.703V3.10211H91.7215C92.0252 2.63813 92.4606 2.40659 93.0248 2.40659C93.4243 2.40659 93.7548 2.53403 94.0171 2.7898C94.3439 3.1084 94.5077 3.58225 94.5077 4.20867V6.72422Z" fill="white"/>
<path d="M99.7755 4.4088C99.7755 4.57752 99.7626 4.71932 99.7396 4.83509H96.8466C96.8595 5.2533 96.9976 5.5719 97.2654 5.79267C97.5102 5.99011 97.826 6.08883 98.2126 6.08883C98.6406 6.08883 99.0308 6.02242 99.3825 5.8887L99.5334 6.54204C99.122 6.71615 98.6378 6.8032 98.0772 6.8032C97.4053 6.8032 96.876 6.61025 96.4931 6.22434C96.1084 5.83844 95.9178 5.32061 95.9178 4.67086C95.9178 4.03277 96.0955 3.50148 96.4536 3.07789C96.8273 2.62557 97.3326 2.39941 97.9705 2.39941C98.5946 2.39941 99.0686 2.62557 99.3889 3.07789C99.6476 3.43687 99.7755 3.8811 99.7755 4.4088ZM98.855 4.16559C98.8624 3.88649 98.7989 3.64597 98.6682 3.44315C98.5007 3.18199 98.2457 3.05096 97.9005 3.05096C97.5857 3.05096 97.3289 3.1784 97.1329 3.43417C96.9727 3.63789 96.8779 3.8811 96.8466 4.16559H98.855Z" fill="white"/>
<path d="M37.7332 22.9384H35.6429L34.4978 19.4303H30.5177L29.427 22.9384H27.3918L31.3351 10.9952H33.7706L37.7332 22.9384ZM34.1526 17.9585L33.1171 14.8399C33.0076 14.5213 32.8023 13.771 32.4995 12.5899H32.4627C32.3421 13.0979 32.1479 13.8482 31.8809 14.8399L30.8638 17.9585H34.1526Z" fill="white"/>
<path d="M47.874 18.5266C47.874 19.9913 47.468 21.149 46.6562 21.9988C45.929 22.7554 45.0261 23.1332 43.9482 23.1332C42.7847 23.1332 41.949 22.7258 41.4399 21.9109H41.4031V26.4475H39.4407V17.1616C39.4407 16.2408 39.4158 15.2958 39.368 14.3265H41.0938L41.2034 15.6916H41.2402C41.8946 14.6631 42.8878 14.1497 44.2207 14.1497C45.2626 14.1497 46.1324 14.5509 46.8283 15.3541C47.526 16.1582 47.874 17.2154 47.874 18.5266ZM45.8747 18.5966C45.8747 17.7584 45.6814 17.0674 45.293 16.5235C44.8687 15.9563 44.2989 15.6727 43.5846 15.6727C43.1004 15.6727 42.6605 15.8307 42.2674 16.1421C41.8735 16.4562 41.6157 16.8663 41.4952 17.3743C41.4344 17.6112 41.404 17.8051 41.404 17.9576V19.3935C41.404 20.02 41.601 20.5486 41.995 20.9802C42.3889 21.4119 42.9007 21.6273 43.5303 21.6273C44.2694 21.6273 44.8447 21.3491 45.2562 20.7945C45.6685 20.2389 45.8747 19.5066 45.8747 18.5966Z" fill="white"/>
<path d="M58.0331 18.5266C58.0331 19.9913 57.6272 21.149 56.8144 21.9988C56.0882 22.7554 55.1852 23.1332 54.1074 23.1332C52.9439 23.1332 52.1081 22.7258 51.6 21.9109H51.5632V26.4475H49.6008V17.1616C49.6008 16.2408 49.5759 15.2958 49.5281 14.3265H51.2539L51.3635 15.6916H51.4003C52.0538 14.6631 53.047 14.1497 54.3808 14.1497C55.4218 14.1497 56.2916 14.5509 56.9893 15.3541C57.6843 16.1582 58.0331 17.2154 58.0331 18.5266ZM56.0339 18.5966C56.0339 17.7584 55.8397 17.0674 55.4512 16.5235C55.0269 15.9563 54.459 15.6727 53.7438 15.6727C53.2587 15.6727 52.8196 15.8307 52.4257 16.1421C52.0317 16.4562 51.7749 16.8663 51.6543 17.3743C51.5945 17.6112 51.5632 17.8051 51.5632 17.9576V19.3935C51.5632 20.02 51.7602 20.5486 52.1523 20.9802C52.5463 21.411 53.058 21.6273 53.6895 21.6273C54.4286 21.6273 55.0039 21.3491 55.4154 20.7945C55.8277 20.2389 56.0339 19.5066 56.0339 18.5966Z" fill="white"/>
<path d="M69.3916 19.5892C69.3916 20.6051 69.0299 21.4317 68.3036 22.0698C67.5056 22.7671 66.3946 23.1153 64.967 23.1153C63.6489 23.1153 62.5922 22.8676 61.7923 22.3713L62.247 20.7765C63.1086 21.2845 64.0539 21.5394 65.0839 21.5394C65.823 21.5394 66.3983 21.376 66.8116 21.0512C67.223 20.7263 67.4283 20.2901 67.4283 19.7463C67.4283 19.2616 67.2589 18.8533 66.9193 18.5221C66.5815 18.191 66.0172 17.8832 65.2293 17.5987C63.0846 16.8188 62.0132 15.6763 62.0132 14.174C62.0132 13.1922 62.3888 12.3872 63.1408 11.7607C63.89 11.1334 64.8896 10.8202 66.1396 10.8202C67.2543 10.8202 68.1803 11.0096 68.9194 11.3874L68.4288 12.9472C67.7385 12.581 66.9579 12.3979 66.0844 12.3979C65.3941 12.3979 64.8547 12.564 64.4681 12.8942C64.1413 13.1895 63.9775 13.5494 63.9775 13.9757C63.9775 14.4477 64.1643 14.8381 64.5399 15.145C64.8666 15.4286 65.4603 15.7356 66.3219 16.0667C67.3758 16.4804 68.1499 16.9642 68.6479 17.5188C69.144 18.0716 69.3916 18.7636 69.3916 19.5892Z" fill="white"/>
<path d="M75.88 15.7624H73.7169V19.9437C73.7169 21.0071 74.098 21.5384 74.8619 21.5384C75.2126 21.5384 75.5035 21.5088 75.7336 21.4496L75.7879 22.9026C75.4013 23.0435 74.8923 23.1144 74.2618 23.1144C73.4868 23.1144 72.8811 22.8837 72.4439 22.4233C72.0085 21.962 71.7894 21.1884 71.7894 20.1016V15.7607H70.5008V14.3247H71.7894V12.7479L73.7169 12.1807V14.3247H75.88V15.7624Z" fill="white"/>
<path d="M85.6396 18.5616C85.6396 19.8853 85.2511 20.9722 84.4761 21.822C83.6633 22.6971 82.5846 23.1332 81.2398 23.1332C79.9438 23.1332 78.9119 22.7141 78.1424 21.8759C77.3729 21.0377 76.9882 19.9796 76.9882 18.7043C76.9882 17.3698 77.384 16.2767 78.1783 15.4268C78.9708 14.576 80.0404 14.1506 81.3852 14.1506C82.6812 14.1506 83.7241 14.5697 84.5111 15.4089C85.264 16.2228 85.6396 17.2738 85.6396 18.5616ZM83.6035 18.6235C83.6035 17.8293 83.4295 17.1481 83.077 16.58C82.6656 15.8926 82.0774 15.5498 81.3152 15.5498C80.5264 15.5498 79.9272 15.8935 79.5157 16.58C79.1632 17.149 78.9892 17.8409 78.9892 18.6594C78.9892 19.4537 79.1632 20.1348 79.5157 20.702C79.9401 21.3895 80.5329 21.7323 81.2978 21.7323C82.047 21.7323 82.6352 21.3823 83.0595 20.6841C83.4213 20.1052 83.6035 19.4169 83.6035 18.6235Z" fill="white"/>
<path d="M92.0184 16.0093C91.8242 15.9743 91.6171 15.9563 91.3998 15.9563C90.7095 15.9563 90.1756 16.2103 89.8001 16.7191C89.4733 17.1679 89.3095 17.7351 89.3095 18.4198V22.9385H87.348L87.3664 17.0386C87.3664 16.0461 87.3415 15.1423 87.2927 14.3274H89.002L89.0738 15.9752H89.1281C89.3352 15.4089 89.662 14.953 90.1093 14.611C90.5466 14.3032 91.0188 14.1497 91.5278 14.1497C91.7091 14.1497 91.873 14.1623 92.0184 14.1847V16.0093Z" fill="white"/>
<path d="M100.795 18.2251C100.795 18.5679 100.772 18.8569 100.723 19.0929H94.8359C94.859 19.9437 95.1434 20.5943 95.6901 21.0431C96.1863 21.4442 96.8278 21.6453 97.6157 21.6453C98.4874 21.6453 99.2827 21.5097 99.9979 21.2378L100.305 22.566C99.4695 22.9214 98.4828 23.0982 97.3442 23.0982C95.9745 23.0982 94.8995 22.7051 94.1171 21.9199C93.3365 21.1346 92.9453 20.0801 92.9453 18.7573C92.9453 17.4587 93.3089 16.3772 94.037 15.5148C94.7991 14.594 95.8291 14.1336 97.1251 14.1336C98.3981 14.1336 99.3618 14.594 100.016 15.5148C100.535 16.2462 100.795 17.1508 100.795 18.2251ZM98.9237 17.7288C98.9366 17.1616 98.8086 16.6716 98.5426 16.2579C98.203 15.7257 97.6811 15.46 96.9788 15.46C96.3372 15.46 95.8153 15.7194 95.4168 16.2399C95.09 16.6536 94.8958 17.1499 94.8359 17.7279H98.9237V17.7288Z" fill="white"/>
</svg>
