<svg width="112" height="25" viewBox="0 0 112 25" fill="none" xmlns="http://www.w3.org/2000/svg">
<path d="M4.137 4.26483L12.877 12.8358L4.202 21.4858C4.06043 21.3008 3.95029 21.0937 3.876 20.8728C3.83699 20.6227 3.83699 20.368 3.876 20.1178V5.39783C3.85 5.00283 3.941 4.60783 4.136 4.26483M16.642 9.09783L13.789 11.9238L5.153 3.43083C5.433 3.33383 5.733 3.30683 6.026 3.35283C6.486 3.47883 6.925 3.67283 7.328 3.92583L15.144 8.25083C15.652 8.52383 16.147 8.81083 16.642 9.09783ZM13.79 13.7608L16.629 16.5488L14.571 17.6948L8.292 21.1848C7.772 21.4718 7.25 21.7458 6.742 22.0588C6.52468 22.1943 6.28093 22.2817 6.02707 22.3154C5.77321 22.349 5.51509 22.328 5.27 22.2538L13.79 13.7608ZM21.15 12.8358C21.1578 13.1856 21.0697 13.5309 20.8952 13.8341C20.7207 14.1373 20.4664 14.3869 20.16 14.5558L17.814 15.8578L14.727 12.8358L17.827 9.76183C18.622 10.2048 19.404 10.6478 20.185 11.0648C20.4966 11.2387 20.7526 11.4974 20.9232 11.8109C21.0938 12.1243 21.1731 12.4797 21.15 12.8358Z" fill="white"/>
<path d="M58.1899 13.7698C56.028 13.7698 54.2618 15.374 54.2618 17.5873C54.2618 19.7827 56.028 21.4037 58.1899 21.4037C60.3564 21.4037 62.1226 19.7827 62.1226 17.5873C62.1226 15.374 60.3564 13.7698 58.1899 13.7698ZM58.1899 19.9005C57.0036 19.9005 55.9831 18.9458 55.9831 17.5873C55.9831 16.2108 57.0036 15.273 58.1899 15.273C59.3761 15.273 60.4013 16.2108 60.4013 17.5873C60.4013 18.9458 59.3761 19.9005 58.1899 19.9005ZM49.6192 13.7698C47.4527 13.7698 45.6912 15.374 45.6912 17.5873C45.6912 19.7827 47.4527 21.4037 49.6192 21.4037C51.7846 21.4037 53.5473 19.7827 53.5473 17.5873C53.5473 15.374 51.7846 13.7698 49.6192 13.7698ZM49.6192 19.9005C48.4319 19.9005 47.4078 18.9458 47.4078 17.5873C47.4078 16.2108 48.4319 15.273 49.6192 15.273C50.8055 15.273 51.8261 16.2108 51.8261 17.5873C51.8261 18.9458 50.8055 19.9005 49.6192 19.9005ZM39.4205 14.9398V16.562H43.3935C43.2773 17.4684 42.9666 18.1347 42.4903 18.5992C41.9104 19.1601 41.0072 19.7827 39.4205 19.7827C36.9756 19.7827 35.061 17.8588 35.061 15.4749C35.061 13.0911 36.9756 11.1672 39.4205 11.1672C40.7426 11.1672 41.7044 11.6709 42.4143 12.3238L43.5868 11.1806C42.5938 10.2563 41.273 9.54615 39.4205 9.54615C36.0678 9.54615 33.25 12.206 33.25 15.4749C33.25 18.7439 36.0678 21.4037 39.4205 21.4037C41.2327 21.4037 42.5938 20.8248 43.6639 19.7389C44.7604 18.6698 45.1021 17.1666 45.1021 15.9528C45.1021 15.5759 45.0699 15.2293 45.0123 14.9398H39.4205ZM81.1243 16.1974C80.801 15.3437 79.8035 13.7698 77.7716 13.7698C75.758 13.7698 74.0817 15.3168 74.0817 17.5873C74.0817 19.7255 75.7408 21.4037 77.9649 21.4037C79.7632 21.4037 80.801 20.3346 81.2279 19.712L79.8932 18.8449C79.4479 19.4798 78.8416 19.9005 77.9649 19.9005C77.0939 19.9005 76.4691 19.5112 76.0687 18.7439L81.305 16.6315L81.1243 16.1974ZM75.7857 17.4684C75.7408 15.9966 76.9581 15.2427 77.8302 15.2427C78.5137 15.2427 79.0936 15.5759 79.2869 16.0527L75.7857 17.4684ZM71.5297 21.1715H73.2509V9.95337H71.5297V21.1715ZM68.7108 14.6201H68.6532C68.2666 14.1736 67.5291 13.7698 66.5949 13.7698C64.6343 13.7698 62.8417 15.448 62.8417 17.5996C62.8417 19.7389 64.6343 21.4037 66.5949 21.4037C67.5291 21.4037 68.2666 20.9965 68.6532 20.5365H68.7108V21.084C68.7108 22.5435 67.9111 23.3276 66.6213 23.3276C65.5697 23.3276 64.9173 22.5872 64.6481 21.9646L63.1512 22.5738C63.5826 23.5856 64.7252 24.8308 66.6213 24.8308C68.6394 24.8308 70.3423 23.6731 70.3423 20.8563V14.002H68.7108V14.6201ZM66.7421 19.9005C65.5559 19.9005 64.5629 18.9324 64.5629 17.5996C64.5629 16.2546 65.5559 15.273 66.7421 15.273C67.9111 15.273 68.8327 16.2546 68.8327 17.5996C68.8327 18.9324 67.9111 19.9005 66.7421 19.9005ZM89.183 9.95337H85.0662V21.1715H86.7829V16.9209H89.183C91.0895 16.9209 92.9592 15.5759 92.9592 13.4366C92.9592 11.2984 91.0849 9.95337 89.183 9.95337ZM89.2278 15.3605H86.7829V11.5138H89.2278C90.5096 11.5138 91.2414 12.5515 91.2414 13.4366C91.2414 14.3049 90.5096 15.3605 89.2278 15.3605ZM99.8396 13.7485C98.5993 13.7485 97.3095 14.2824 96.7791 15.466L98.3024 16.0886C98.6304 15.466 99.2333 15.264 99.8707 15.264C100.761 15.264 101.664 15.7857 101.678 16.7067V16.8245C101.368 16.6495 100.703 16.3903 99.8845 16.3903C98.2438 16.3903 96.572 17.271 96.572 18.9144C96.572 20.4176 97.9158 21.3858 99.4266 21.3858C100.582 21.3858 101.219 20.8776 101.62 20.2864H101.678V21.1535H103.336V16.8503C103.336 14.8613 101.813 13.7485 99.8396 13.7485ZM99.6325 19.896C99.071 19.896 98.2886 19.6245 98.2886 18.9458C98.2886 18.0775 99.2643 17.7444 100.109 17.7444C100.865 17.7444 101.219 17.907 101.678 18.1213C101.544 19.1601 100.627 19.896 99.6325 19.896ZM109.377 13.9941L107.403 18.8572H107.345L105.305 13.9941H103.454L106.519 20.7901L104.77 24.5717H106.564L111.287 13.9941H109.377ZM93.9026 21.1715H95.6239V9.95337H93.9026V21.1715Z" fill="white"/>
<path d="M38.8326 3.20139C38.8326 3.95076 38.6025 4.55093 38.1492 4.99853C37.6279 5.52915 36.9491 5.79614 36.1172 5.79614C35.3222 5.79614 34.6433 5.52466 34.0865 4.98955C33.5284 4.4466 33.25 3.78024 33.25 2.98263C33.25 2.18503 33.5284 1.51867 34.0865 0.980199C34.6433 0.440608 35.3222 0.169128 36.1172 0.169128C36.513 0.169128 36.8904 0.248777 37.2506 0.396856C37.6095 0.546057 37.9018 0.747983 38.1135 0.997026L37.6325 1.47043C37.2632 1.04526 36.7604 0.835486 36.1172 0.835486C35.5373 0.835486 35.0345 1.03292 34.6077 1.43117C34.1854 1.83053 33.9737 2.34769 33.9737 2.98263C33.9737 3.61758 34.1854 4.13922 34.6077 4.53859C35.0345 4.93234 35.5373 5.13427 36.1172 5.13427C36.7328 5.13427 37.2506 4.93234 37.659 4.5341C37.9282 4.27047 38.0813 3.90701 38.1215 3.44258H36.1172V2.79417H38.7912C38.8234 2.9344 38.8326 3.07013 38.8326 3.20139Z" fill="white"/>
<path d="M43.0748 0.953288H40.5631V2.65844H42.8274V3.30685H40.5631V5.012H43.0748V5.67275H39.8521V0.292542H43.0748V0.953288Z" fill="white"/>
<path d="M46.0686 5.67275H45.3575V0.953288H43.8169V0.292542H47.6103V0.953288H46.0686V5.67275Z" fill="white"/>
<path d="M50.3557 5.67275V0.292542H51.0656V5.67275H50.3557Z" fill="white"/>
<path d="M54.2124 5.67275H53.5071V0.953288H51.9607V0.292542H55.7587V0.953288H54.2124V5.67275Z" fill="white"/>
<path d="M62.9406 4.98058C62.3964 5.52466 61.7222 5.79614 60.9179 5.79614C60.1091 5.79614 59.4348 5.52466 58.8906 4.98058C58.3475 4.43762 58.0771 3.77127 58.0771 2.98263C58.0771 2.194 58.3475 1.52764 58.8906 0.984686C59.4348 0.440607 60.1091 0.169128 60.9179 0.169128C61.7176 0.169128 62.3918 0.440607 62.936 0.989173C63.4837 1.53662 63.7541 2.19849 63.7541 2.98263C63.7541 3.77127 63.4837 4.43762 62.9406 4.98058ZM59.4164 4.52961C59.826 4.93234 60.3242 5.13427 60.9179 5.13427C61.507 5.13427 62.0098 4.93234 62.4148 4.52961C62.8233 4.12688 63.0304 3.60973 63.0304 2.98263C63.0304 2.35554 62.8233 1.83839 62.4148 1.43565C62.0098 1.03292 61.507 0.830998 60.9179 0.830998C60.3242 0.830998 59.826 1.03292 59.4164 1.43565C59.008 1.83839 58.8009 2.35554 58.8009 2.98263C58.8009 3.60973 59.008 4.12688 59.4164 4.52961Z" fill="white"/>
<path d="M64.7516 5.67275V0.292542H65.6146L68.2977 4.4769H68.3288L68.2977 3.44259V0.292542H69.0076V5.67275H68.2667L65.4569 1.28198H65.4259L65.4569 2.32078V5.67275H64.7516Z" fill="white"/>
</svg>
