<svg width="97" height="96" viewBox="0 0 97 96" fill="none" xmlns="http://www.w3.org/2000/svg">
<path fill-rule="evenodd" clip-rule="evenodd" d="M19.3716 33.2604C22.483 30.0434 25.5944 28.9712 29.743 31.1156C33.4788 33.0468 35.5326 33.239 37.419 33.2582C39.384 33.239 41.5232 33.0468 45.4144 31.1156C49.7354 28.9712 52.9764 30.0434 56.2172 33.2604C60.0364 37.0514 61.2178 40.9984 61.6188 43.9826C61.6658 44.2212 61.7074 44.4606 61.744 44.7008C58.8316 45.5482 56.7034 48.237 56.7034 51.4228C56.7034 53.8954 57.9854 56.0686 59.9208 57.314C59.869 57.4496 59.8164 57.5848 59.763 57.7196C58.618 56.9032 57.2168 56.4228 55.7034 56.4228C51.8374 56.4228 48.7034 59.5568 48.7034 63.4228C48.7034 66.2232 50.3478 68.6396 52.7238 69.7588C52.5328 69.994 52.3478 70.2156 52.1696 70.4228C50.4988 72.159 48.5996 73.2738 46.5394 72.933C40.0576 71.8608 38.9774 71.8608 37.897 71.8608H36.96C35.9228 71.8608 34.8856 71.8608 28.6628 72.933C23.6846 73.7908 19.6846 65.4274 17.6985 61.1426C14.5804 54.4156 13.9562 47.5438 14.1858 43.9826C14.5707 40.9984 15.7049 37.0514 19.3716 33.2604Z" fill="#8F3F97"/>
<path fill-rule="evenodd" clip-rule="evenodd" d="M75.8336 36.1794C78.0802 36.9858 79.9146 38.6516 80.933 40.8104C81.9514 42.9692 82.0706 45.444 81.2642 47.6906C81.2008 47.8676 81.1148 48.0302 81.011 48.1762C81.4984 48.5954 81.9408 49.0666 82.3298 49.5826C83.0578 50.5486 83.5838 51.6514 83.876 52.8252C84.1684 53.999 84.221 55.2198 84.031 56.4144C83.8408 57.609 83.412 58.753 82.7696 59.7782C82.2082 60.6744 81.4938 61.4638 80.66 62.1106C80.6886 62.4032 80.7034 62.6998 80.7034 63C80.7034 64.5494 80.3118 66.0072 79.6224 67.2802C80.3982 67.7 81.1104 68.2328 81.7346 68.8632C82.6826 69.8204 83.4034 70.978 83.8442 72.251C84.285 73.524 84.4344 74.8796 84.2814 76.218C84.1284 77.5564 83.677 78.8432 82.9604 79.9838C82.2438 81.1246 81.2802 82.0898 80.1408 82.8084C79.0014 83.527 77.7152 83.9806 76.3772 84.136C75.039 84.2912 73.6832 84.1442 72.4094 83.7056C71.3032 83.3246 70.2834 82.7322 69.4062 81.963C67.8536 83.236 65.8678 84 63.7034 84C58.7328 84 54.7034 79.9706 54.7034 75C54.7034 73.9434 54.8854 72.9292 55.22 71.9872C50.4742 71.736 46.7034 67.8084 46.7034 63C46.7034 58.1916 50.4742 54.264 55.22 54.0128C54.8854 53.0708 54.7034 52.0566 54.7034 51C54.7034 46.0294 58.7328 42 63.7034 42C63.8778 42 64.051 42.005 64.2228 42.0148C64.2414 41.8794 64.2744 41.7438 64.3224 41.61C65.1288 39.3634 66.7944 37.5292 68.9532 36.5108C71.112 35.4922 73.587 35.3732 75.8336 36.1794ZM71.8672 78.7934C72.392 79.3 73.0216 79.6858 73.7118 79.9234C74.4194 80.1672 75.1726 80.2488 75.916 80.1626C76.6594 80.0764 77.374 79.8242 78.007 79.425C78.64 79.0258 79.1752 78.4896 79.5734 77.856C79.9716 77.2222 80.2224 76.5072 80.3074 75.7638C80.3924 75.0202 80.3094 74.267 80.0644 73.5598C79.8196 72.8526 79.419 72.2094 78.8924 71.6778C78.3658 71.146 77.7266 70.7392 77.0218 70.4874C76.953 70.4628 76.8864 70.4348 76.822 70.4036C75.4926 71.3244 73.9034 71.8964 72.1868 71.9872C72.5212 72.9292 72.7034 73.9434 72.7034 75C72.7034 76.3554 72.4038 77.6406 71.8672 78.7934ZM72.1868 54.0128C75.093 54.1666 77.6336 55.699 79.1664 57.9682C79.2414 57.8666 79.3126 57.762 79.38 57.6546C79.7368 57.085 79.975 56.4494 80.0806 55.7858C80.1862 55.122 80.157 54.444 79.9946 53.7918C79.8322 53.1396 79.54 52.527 79.1356 51.9904C78.731 51.4538 78.2224 51.0042 77.6402 50.6684C77.0582 50.3328 76.4142 50.1178 75.7472 50.0366C75.08 49.9554 74.4034 50.0096 73.7576 50.1956C73.387 50.3026 73.031 50.4516 72.6962 50.6394C72.701 50.759 72.7034 50.8792 72.7034 51C72.7034 52.0566 72.5212 53.0708 72.1868 54.0128ZM71.6212 46.7176C71.9556 46.5754 72.299 46.4534 72.6496 46.3522C73.8118 46.0172 75.0298 45.9198 76.2306 46.066C76.6628 46.1186 77.0896 46.2024 77.5076 46.3162C77.9464 45.0744 77.8776 43.709 77.3154 42.517C76.7496 41.3178 75.7304 40.3922 74.4824 39.9444C73.2342 39.4964 71.8592 39.5626 70.66 40.1284C69.4606 40.6942 68.5352 41.7132 68.0872 42.9614C68.0696 43.0106 68.0502 43.0588 68.029 43.1058C69.5458 43.9386 70.7964 45.1958 71.6212 46.7176ZM63.7034 46C60.942 46 58.7034 48.2386 58.7034 51C58.7034 53.7614 60.942 56 63.7034 56C66.4648 56 68.7034 53.7614 68.7034 51C68.7034 48.2386 66.4648 46 63.7034 46ZM55.7034 58C52.942 58 50.7034 60.2386 50.7034 63C50.7034 65.7614 52.942 68 55.7034 68C58.4648 68 60.7034 65.7614 60.7034 63C60.7034 60.2386 58.4648 58 55.7034 58ZM66.7034 63C66.7034 60.2386 68.942 58 71.7034 58C74.4648 58 76.7034 60.2386 76.7034 63C76.7034 65.7614 74.4648 68 71.7034 68C68.942 68 66.7034 65.7614 66.7034 63ZM63.7034 70C60.942 70 58.7034 72.2386 58.7034 75C58.7034 77.7614 60.942 80 63.7034 80C66.4648 80 68.7034 77.7614 68.7034 75C68.7034 72.2386 66.4648 70 63.7034 70Z" fill="#8F3F97"/>
<path fill-rule="evenodd" clip-rule="evenodd" d="M15.2734 16.002H17.539C23.2176 16.002 28.5672 18.555 32.471 21.9454C33.749 23.0554 34.9154 24.2948 35.9028 25.6098V21.132C35.9028 20.0274 36.7982 19.132 37.9028 19.132C39.0074 19.132 39.9028 20.0274 39.9028 21.132V34.332C39.9028 34.9682 39.6058 35.535 39.1428 35.9012V36.0004H39.0062C38.69 36.21 38.3106 36.332 37.9028 36.332C37.493 36.332 37.112 36.2088 36.7948 35.9974C31.9152 35.9106 27.0106 34.0112 23.1512 30.9654C19.1978 27.8456 16.1988 23.4048 15.5544 18.25L15.2734 16.002ZM34.765 31.8234C34.0574 29.6396 32.3726 27.158 29.848 24.9654C27.1296 22.6044 23.6878 20.8086 20.0814 20.214C21.0476 23.137 23.0262 25.7714 25.6292 27.8254C28.2942 29.9286 31.5218 31.3468 34.765 31.8234Z" fill="#8F3F97"/>
<path fill-rule="evenodd" clip-rule="evenodd" d="M76.0793 18.2885L76.4423 20.5248C77.3519 26.13 75.6887 31.8196 72.9673 36.216C70.2907 40.5404 66.2997 44.0572 62.1369 44.7328L60.1627 45.0532L59.8423 43.079C59.0423 38.1498 60.1261 32.8612 62.5709 28.4616C65.0171 24.0594 68.9203 20.3878 73.9053 18.926L76.0793 18.2885ZM72.6919 23.7092C69.9615 25.131 67.6779 27.5062 66.0673 30.4046C64.4183 33.372 63.5355 36.785 63.5845 40.0626C65.6265 39.0144 67.8063 36.954 69.5661 34.1108C71.4613 31.0492 72.6825 27.3642 72.6919 23.7092Z" fill="#8F3F97"/>
</svg>
