<svg width="96" height="96" viewBox="0 0 96 96" fill="none" xmlns="http://www.w3.org/2000/svg">
<path fill-rule="evenodd" clip-rule="evenodd" d="M59.1688 45.7412C61.4876 45.7412 63.7526 45.1098 65.6676 43.9296C67.612 45.1076 69.9068 45.7252 72.2484 45.7006L79.6866 43.2572C81.7826 41.6974 83.2214 39.535 83.7626 37.1322C84.3036 34.7292 83.9138 32.2314 82.6586 30.0568C81.4034 27.8822 79.3588 26.1626 76.8672 25.1862C76.2982 22.8596 74.8652 20.7788 72.8058 19.2889L65.545 16.995H64.7276C63.1126 14.8678 60.688 13.3505 57.9148 12.7314L42.3482 11.9414C39.7606 12.1355 37.3206 13.1098 35.421 14.7074C34.5234 14.5164 33.6046 14.4174 32.6824 14.4122C30.4494 14.4164 28.2654 15.0039 26.3942 16.1038C24.523 17.2037 23.0444 18.7691 22.137 20.611L16.2223 24.3932C14.7506 26.1932 13.9583 28.3726 13.9622 30.61C13.9476 31.5454 14.0853 32.4778 14.3709 33.3772C12.8191 35.195 11.9847 37.4286 12.0002 39.7234C11.9965 42.385 13.1228 44.9466 15.1475 46.8814C15.3109 48.7868 16.0485 50.6158 17.2804 52.17C18.5124 53.7244 20.1918 54.945 22.137 55.6998C24.3782 56.9682 26.276 58.674 27.6906 60.6916C29.1054 62.7094 30.001 64.9878 30.3118 67.3592H35.7486V51.8728L30.465 47.1764L26.8902 50.7514C26.109 51.5324 24.8428 51.5324 24.0616 50.7514C23.2806 49.9704 23.2806 48.704 24.0616 47.923L28.2296 43.755L26.9594 36.7696L21.3088 33.9442C20.3208 33.4502 19.9204 32.2488 20.4144 31.2608C20.9084 30.273 22.1096 29.8724 23.0976 30.3664L28.6312 33.1332L35.5546 28.7276L33.4214 23.0394C33.0336 22.0052 33.5576 20.8524 34.5918 20.4644C35.626 20.0766 36.779 20.6006 37.1668 21.6348L39.442 27.702H42.2398L43.5382 25.1052L41.6376 20.6704C41.2026 19.6552 41.6728 18.4794 42.688 18.0443C43.7034 17.6092 44.8792 18.0795 45.3142 19.0947L46.9658 22.9484L53.5652 24.1482C53.6022 24.1136 53.6408 24.0802 53.681 24.0482L57.772 20.7754C58.6346 20.0854 59.8932 20.2252 60.5832 21.0878C61.2732 21.9502 61.1332 23.2088 60.2708 23.8988L57.3274 26.2536L60.7858 30.6998L62.1416 27.9882C62.4804 27.3106 63.173 26.8826 63.9304 26.8826H68.8396C69.9442 26.8826 70.8396 27.778 70.8396 28.8826C70.8396 29.9872 69.9442 30.8826 68.8396 30.8826H65.1666L64.328 32.5598L68.4552 33.4768C68.6148 33.5124 68.7694 33.5672 68.9158 33.6404L72.1884 35.2768C73.1764 35.7708 73.5768 36.972 73.083 37.96C72.589 38.948 71.3876 39.3484 70.3996 38.8544L67.3472 37.3282L60.2238 35.7452C59.7696 35.6442 59.3646 35.388 59.079 35.0208L53.8208 28.2602L47.2942 27.0736C47.1708 27.1886 47.0312 27.2892 46.877 27.3718L45.4758 30.1742V31.7916H48.385C48.6956 31.7916 49.0018 31.864 49.2794 32.0028L55.825 35.2756C56.8128 35.7696 57.2134 36.9708 56.7194 37.9588C56.2254 38.9468 55.024 39.3472 54.036 38.8532L47.9128 35.7916H45.4758V39.5202C45.4758 40.6248 44.5804 41.5202 43.4758 41.5202C42.3712 41.5202 41.4758 40.6248 41.4758 39.5202V31.702H38.331L30.9568 36.3946L32.2292 43.3928L39.0774 49.4798C39.5042 49.8594 39.7486 50.4034 39.7486 50.9746V67.3592H45.583V56.29C45.5802 54.3248 46.1876 52.398 47.3364 50.7284C48.485 49.059 50.129 47.7134 52.082 46.8444C53.1802 46.4652 53.4504 45.9546 53.7814 45.329C54.002 44.912 54.2498 44.444 54.7874 43.9296C55.2546 44.2174 55.6164 44.4728 55.9304 44.694C56.9036 45.3802 57.4154 45.7412 59.1688 45.7412Z" fill="#8F3F97"/>
<path fill-rule="evenodd" clip-rule="evenodd" d="M46 76.0002H30V72.0002H46V76.0002Z" fill="#8F3F97"/>
<path fill-rule="evenodd" clip-rule="evenodd" d="M46 84.0002H30V80.0002H46V84.0002Z" fill="#8F3F97"/>
</svg>
