<svg width="40" height="41" viewBox="0 0 40 41" fill="none" xmlns="http://www.w3.org/2000/svg">
<path fill-rule="evenodd" clip-rule="evenodd" d="M28.1946 12.009C28.1946 14.8929 27.478 18.6542 26.3759 18.0832C25.541 20.8121 23.0022 22.7967 19.9999 22.7967C16.5442 22.7967 13.7027 20.1675 13.3665 16.8004C12.2726 14.8857 10.8373 11.0502 14.5266 8.05972C14.5925 8.03797 14.6332 7.8585 14.6936 7.59321C14.9213 6.59071 15.4276 4.36259 18.6181 4.78796C21.0791 5.11607 28.1946 6.38629 28.1946 12.009ZM25.0233 13.8267C25.0233 13.8267 24.6469 14.9281 24.9998 16.1562C24.9858 18.9056 22.7526 21.1301 19.9999 21.1301C17.3021 21.1301 15.1033 18.9935 15.0035 16.3201C15.1244 15.8618 15.1239 15.0856 15.1233 14.2235C15.1223 12.6677 15.1211 10.8324 15.8334 10.0833C20.824 13.4071 25.0233 13.8267 25.0233 13.8267Z" fill="#495057"/>
<path d="M10.8333 30.4999C10.8333 29.598 11.311 28.8076 12.0272 28.3679C12.0007 28.2677 11.9751 28.1631 11.9505 28.0557C11.8357 27.5543 11.7316 26.9445 11.6552 26.3323C11.5844 25.7651 11.5353 25.1788 11.5258 24.6608C8.00828 26.0415 5 28.4479 5 30.9748V35.4999H35V30.9748C35 28.555 32.2412 26.2457 28.9182 24.8417L28.9189 24.8646C28.9332 25.3731 28.9047 25.956 28.8503 26.5177C28.8 27.0373 28.7259 27.556 28.6369 27.9999H29.1667C29.4823 27.9999 29.7708 28.1783 29.912 28.4606L30.7453 30.1273C30.8033 30.2429 30.8333 30.3706 30.8333 30.4999V32.1666C30.8333 32.6268 30.4602 32.9999 30 32.9999H28.3333V31.3333H29.1667V30.6967L28.6517 29.6666H26.3483L25.8333 30.6967V31.3333H26.6667V32.9999H25C24.5397 32.9999 24.1667 32.6268 24.1667 32.1666V30.4999C24.1667 30.3706 24.1968 30.2429 24.2547 30.1273L25.088 28.4606C25.2292 28.1783 25.5177 27.9999 25.8333 27.9999H26.9293C26.9474 27.9283 26.9658 27.8489 26.9842 27.7619C27.0676 27.369 27.1416 26.8713 27.1914 26.3572C27.2412 25.8424 27.2647 25.3316 27.2529 24.9113C27.247 24.7008 27.2326 24.526 27.2118 24.3915C27.1937 24.2733 27.1753 24.2188 27.1714 24.2072C27.1714 24.2071 27.1714 24.2073 27.1714 24.2072C27.1707 24.2048 27.1704 24.2042 27.1711 24.2054C27.171 24.2053 27.1712 24.2056 27.1711 24.2054L27.1741 24.2046C26.7287 24.0664 26.2802 23.9456 25.8333 23.8438C25.4143 23.7483 24.9812 24.3251 24.7911 24.6863H21.4042C20.6624 24.6865 20.285 24.6864 19.914 24.6863H19.9011C19.522 24.6863 19.1448 24.6862 18.3866 24.6863H15C14.9767 24.6422 14.953 24.5948 14.9284 24.5458C14.7521 24.1942 14.5344 23.76 14.1667 23.8438C13.8459 23.9168 13.5244 23.9997 13.2038 24.0917C13.1945 24.2151 13.1899 24.3623 13.191 24.5312C13.1939 24.9919 13.238 25.5565 13.3091 26.1259C13.38 26.6943 13.4753 27.2476 13.5751 27.6838C13.6041 27.8103 13.6326 27.9232 13.6599 28.0211C14.8863 28.1811 15.8333 29.2299 15.8333 30.4999C15.8333 31.8807 14.7141 32.9999 13.3333 32.9999C11.9526 32.9999 10.8333 31.8807 10.8333 30.4999Z" fill="#495057"/>
<path d="M14.1667 30.4999C14.1667 30.9784 13.782 31.3455 13.3333 31.3455C12.8847 31.3455 12.5 30.9784 12.5 30.4999C12.5 30.0214 12.8847 29.6543 13.3333 29.6543C13.782 29.6543 14.1667 30.0214 14.1667 30.4999Z" fill="#495057"/>
</svg>
