<svg width="40" height="41" viewBox="0 0 40 41" fill="none" xmlns="http://www.w3.org/2000/svg">
<g clip-path="url(#clip0_277_21234)">
<path d="M36.6077 18.4452L29.5765 24.5124L31.7187 33.5859C31.8368 34.0784 31.8064 34.595 31.6312 35.0702C31.456 35.5455 31.1438 35.9582 30.7342 36.2561C30.3245 36.5541 29.8358 36.7239 29.3297 36.7442C28.8235 36.7645 28.3227 36.6344 27.8905 36.3702L19.9999 31.514L12.1046 36.3702C11.6724 36.6329 11.1723 36.7618 10.667 36.7407C10.1617 36.7197 9.67401 36.5496 9.26522 36.2519C8.85643 35.9542 8.54487 35.5422 8.36975 35.0678C8.19464 34.5934 8.16381 34.0778 8.28115 33.5859L10.4312 24.5124L3.3999 18.4452C3.01756 18.1148 2.74104 17.679 2.60488 17.1923C2.46872 16.7057 2.47895 16.1897 2.6343 15.7088C2.78965 15.2279 3.08324 14.8034 3.47839 14.4884C3.87354 14.1734 4.35274 13.9817 4.85615 13.9374L14.0749 13.1937L17.6312 4.58743C17.8236 4.11839 18.1513 3.71719 18.5724 3.43483C18.9935 3.15247 19.489 3.00171 19.996 3.00171C20.503 3.00171 20.9985 3.15247 21.4196 3.43483C21.8407 3.71719 22.1683 4.11839 22.3608 4.58743L25.9155 13.1937L35.1343 13.9374C35.6387 13.9801 36.1193 14.1707 36.5159 14.4853C36.9125 14.7998 37.2074 15.2245 37.3637 15.706C37.52 16.1874 37.5308 16.7043 37.3946 17.1919C37.2585 17.6794 36.9815 18.116 36.5983 18.4468L36.6077 18.4452Z" fill="#495057"/>
</g>
<defs>
<clipPath id="clip0_277_21234">
<rect width="40" height="40" fill="white" transform="translate(0 0.5)"/>
</clipPath>
</defs>
</svg>
