<svg width="96" height="96" viewBox="0 0 96 96" fill="none" xmlns="http://www.w3.org/2000/svg">
<path fill-rule="evenodd" clip-rule="evenodd" d="M41.9182 18.5628C33.2436 13.6803 25.5584 15.9761 19.1707 23.7314C13.0056 31.2166 17.2089 44.7088 20.2306 54.4078C20.951 56.7204 21.6044 58.8174 22.0338 60.5658C24.2648 69.6474 26.3992 75.3064 31.2662 79.402C33.6766 81.43 36.4096 77.9448 39.293 74.2676C41.793 71.0796 44.406 67.7474 47.0196 67.7394C49.5908 67.7316 52.1624 71.0586 54.6276 74.2478C57.4732 77.9292 60.1772 81.427 62.5748 79.402C66.2922 76.2622 67.9806 73.9586 70.0232 67.49C72.2508 60.4358 75.8476 52 78.7072 42.276C80.7192 35.4342 80.9602 28.469 75.1616 21.7454C66.8828 12.1463 55.408 17.1045 50.0664 20.2792L57.3016 26.4816C58.1402 27.2004 58.2374 28.463 57.5184 29.3016C56.7996 30.1402 55.537 30.2374 54.6984 29.5184L41.9182 18.5628Z" fill="#8F3F97"/>
</svg>
