<svg width="40" height="41" viewBox="0 0 40 41" fill="none" xmlns="http://www.w3.org/2000/svg">
<g clip-path="url(#clip0_277_21237)">
<path d="M32.5 5.5H28.75V4.25C28.75 3.91848 28.6183 3.60054 28.3839 3.36612C28.1495 3.1317 27.8315 3 27.5 3C27.1685 3 26.8505 3.1317 26.6161 3.36612C26.3817 3.60054 26.25 3.91848 26.25 4.25V5.5H13.75V4.25C13.75 3.91848 13.6183 3.60054 13.3839 3.36612C13.1495 3.1317 12.8315 3 12.5 3C12.1685 3 11.8505 3.1317 11.6161 3.36612C11.3817 3.60054 11.25 3.91848 11.25 4.25V5.5H7.5C6.83696 5.5 6.20107 5.76339 5.73223 6.23223C5.26339 6.70107 5 7.33696 5 8V33C5 33.663 5.26339 34.2989 5.73223 34.7678C6.20107 35.2366 6.83696 35.5 7.5 35.5H32.5C33.163 35.5 33.7989 35.2366 34.2678 34.7678C34.7366 34.2989 35 33.663 35 33V8C35 7.33696 34.7366 6.70107 34.2678 6.23223C33.7989 5.76339 33.163 5.5 32.5 5.5ZM13.125 29.25C12.7542 29.25 12.3916 29.14 12.0833 28.934C11.775 28.728 11.5346 28.4351 11.3927 28.0925C11.2508 27.7499 11.2137 27.3729 11.286 27.0092C11.3584 26.6455 11.537 26.3114 11.7992 26.0492C12.0614 25.787 12.3955 25.6084 12.7592 25.536C13.1229 25.4637 13.4999 25.5008 13.8425 25.6427C14.1851 25.7846 14.478 26.025 14.684 26.3333C14.89 26.6416 15 27.0042 15 27.375C15 27.8723 14.8025 28.3492 14.4508 28.7008C14.0992 29.0525 13.6223 29.25 13.125 29.25ZM20 29.25C19.6292 29.25 19.2666 29.14 18.9583 28.934C18.65 28.728 18.4096 28.4351 18.2677 28.0925C18.1258 27.7499 18.0887 27.3729 18.161 27.0092C18.2334 26.6455 18.412 26.3114 18.6742 26.0492C18.9364 25.787 19.2705 25.6084 19.6342 25.536C19.9979 25.4637 20.3749 25.5008 20.7175 25.6427C21.0601 25.7846 21.353 26.025 21.559 26.3333C21.765 26.6416 21.875 27.0042 21.875 27.375C21.875 27.8723 21.6775 28.3492 21.3258 28.7008C20.9742 29.0525 20.4973 29.25 20 29.25ZM20 23C19.6292 23 19.2666 22.89 18.9583 22.684C18.65 22.478 18.4096 22.1851 18.2677 21.8425C18.1258 21.4999 18.0887 21.1229 18.161 20.7592C18.2334 20.3955 18.412 20.0614 18.6742 19.7992C18.9364 19.537 19.2705 19.3584 19.6342 19.286C19.9979 19.2137 20.3749 19.2508 20.7175 19.3927C21.0601 19.5346 21.353 19.775 21.559 20.0833C21.765 20.3916 21.875 20.7542 21.875 21.125C21.875 21.6223 21.6775 22.0992 21.3258 22.4508C20.9742 22.8025 20.4973 23 20 23ZM26.875 29.25C26.5042 29.25 26.1416 29.14 25.8333 28.934C25.525 28.728 25.2846 28.4351 25.1427 28.0925C25.0008 27.7499 24.9637 27.3729 25.036 27.0092C25.1084 26.6455 25.287 26.3114 25.5492 26.0492C25.8114 25.787 26.1455 25.6084 26.5092 25.536C26.8729 25.4637 27.2499 25.5008 27.5925 25.6427C27.9351 25.7846 28.228 26.025 28.434 26.3333C28.64 26.6416 28.75 27.0042 28.75 27.375C28.75 27.8723 28.5525 28.3492 28.2008 28.7008C27.8492 29.0525 27.3723 29.25 26.875 29.25ZM26.875 23C26.5042 23 26.1416 22.89 25.8333 22.684C25.525 22.478 25.2846 22.1851 25.1427 21.8425C25.0008 21.4999 24.9637 21.1229 25.036 20.7592C25.1084 20.3955 25.287 20.0614 25.5492 19.7992C25.8114 19.537 26.1455 19.3584 26.5092 19.286C26.8729 19.2137 27.2499 19.2508 27.5925 19.3927C27.9351 19.5346 28.228 19.775 28.434 20.0833C28.64 20.3916 28.75 20.7542 28.75 21.125C28.75 21.6223 28.5525 22.0992 28.2008 22.4508C27.8492 22.8025 27.3723 23 26.875 23ZM32.5 13H7.5V8H11.25V9.25C11.25 9.58152 11.3817 9.89946 11.6161 10.1339C11.8505 10.3683 12.1685 10.5 12.5 10.5C12.8315 10.5 13.1495 10.3683 13.3839 10.1339C13.6183 9.89946 13.75 9.58152 13.75 9.25V8H26.25V9.25C26.25 9.58152 26.3817 9.89946 26.6161 10.1339C26.8505 10.3683 27.1685 10.5 27.5 10.5C27.8315 10.5 28.1495 10.3683 28.3839 10.1339C28.6183 9.89946 28.75 9.58152 28.75 9.25V8H32.5V13Z" fill="#495057"/>
</g>
<defs>
<clipPath id="clip0_277_21237">
<rect width="40" height="40" fill="white" transform="translate(0 0.5)"/>
</clipPath>
</defs>
</svg>
