<svg width="18" height="19" viewBox="0 0 18 19" fill="none" xmlns="http://www.w3.org/2000/svg">
<path d="M16.8638 7.47661C16.5608 7.16 16.2474 6.83375 16.1293 6.54688C16.02 6.28411 16.0136 5.84857 16.0071 5.4267C15.9951 4.64241 15.9822 3.75366 15.3643 3.13571C14.7463 2.51777 13.8576 2.50491 13.0733 2.49286C12.6514 2.48643 12.2159 2.48 11.9531 2.37071C11.6671 2.25259 11.34 1.9392 11.0234 1.63625C10.4689 1.10348 9.83893 0.5 9 0.5C8.16107 0.5 7.53187 1.10348 6.97661 1.63625C6.66 1.9392 6.33375 2.25259 6.04688 2.37071C5.78571 2.48 5.34857 2.48643 4.9267 2.49286C4.14241 2.50491 3.25366 2.51777 2.63571 3.13571C2.01777 3.75366 2.00893 4.64241 1.99286 5.4267C1.98643 5.84857 1.98 6.28411 1.87071 6.54688C1.75259 6.83295 1.4392 7.16 1.13625 7.47661C0.603482 8.03107 0 8.66107 0 9.5C0 10.3389 0.603482 10.9681 1.13625 11.5234C1.4392 11.84 1.75259 12.1663 1.87071 12.4531C1.98 12.7159 1.98643 13.1514 1.99286 13.5733C2.00491 14.3576 2.01777 15.2463 2.63571 15.8643C3.25366 16.4822 4.14241 16.4951 4.9267 16.5071C5.34857 16.5136 5.78411 16.52 6.04688 16.6293C6.33295 16.7474 6.66 17.0608 6.97661 17.3638C7.53107 17.8965 8.16107 18.5 9 18.5C9.83893 18.5 10.4681 17.8965 11.0234 17.3638C11.34 17.0608 11.6663 16.7474 11.9531 16.6293C12.2159 16.52 12.6514 16.5136 13.0733 16.5071C13.8576 16.4951 14.7463 16.4822 15.3643 15.8643C15.9822 15.2463 15.9951 14.3576 16.0071 13.5733C16.0136 13.1514 16.02 12.7159 16.1293 12.4531C16.2474 12.1671 16.5608 11.84 16.8638 11.5234C17.3965 10.9689 18 10.3389 18 9.5C18 8.66107 17.3965 8.03187 16.8638 7.47661ZM12.6691 8.02625L8.16911 12.5262C8.1094 12.586 8.0385 12.6334 7.96046 12.6658C7.88242 12.6981 7.79877 12.7148 7.71429 12.7148C7.6298 12.7148 7.54615 12.6981 7.46811 12.6658C7.39007 12.6334 7.31917 12.586 7.25946 12.5262L5.33089 10.5977C5.21027 10.4771 5.1425 10.3134 5.1425 10.1429C5.1425 9.97227 5.21027 9.80866 5.33089 9.68804C5.45152 9.56741 5.61512 9.49964 5.78571 9.49964C5.95631 9.49964 6.11991 9.56741 6.24054 9.68804L7.71429 11.1626L11.7595 7.11661C11.8192 7.05688 11.8901 7.0095 11.9681 6.97718C12.0462 6.94485 12.1298 6.92821 12.2143 6.92821C12.2988 6.92821 12.3824 6.94485 12.4604 6.97718C12.5385 7.0095 12.6094 7.05688 12.6691 7.11661C12.7288 7.17633 12.7762 7.24724 12.8085 7.32528C12.8409 7.40332 12.8575 7.48696 12.8575 7.57143C12.8575 7.6559 12.8409 7.73954 12.8085 7.81758C12.7762 7.89561 12.7288 7.96652 12.6691 8.02625Z" fill="#8F3F97"/>
</svg>
