<svg width="97" height="96" viewBox="0 0 97 96" fill="none" xmlns="http://www.w3.org/2000/svg">
<path fill-rule="evenodd" clip-rule="evenodd" d="M68.0957 27.6216C68.0957 34.543 66.3759 43.5702 63.7309 42.1996C61.7271 48.749 55.6341 53.5122 48.4285 53.5122C40.1349 53.5122 33.3153 47.202 32.5083 39.121C29.8829 34.5258 26.4383 25.3206 35.2927 18.1433C35.4507 18.0911 35.5485 17.6604 35.6933 17.0237C36.2399 14.6177 37.4549 9.27022 45.1121 10.2911C51.0185 11.0786 68.0959 14.1271 68.0957 27.6216ZM60.4847 31.984C60.4847 31.984 59.5813 34.6274 60.4283 37.5748C60.3947 44.1734 55.0351 49.5122 48.4285 49.5122C41.9539 49.5122 36.6767 44.3844 36.4371 37.9682C36.7273 36.8684 36.7261 35.0054 36.7247 32.9364C36.7223 29.2024 36.7195 24.7978 38.4289 23C50.4063 30.977 60.4847 31.984 60.4847 31.984Z" fill="#8F3F97"/>
<path d="M26.4285 72C26.4285 69.8354 27.5749 67.9384 29.2937 66.8832C29.2301 66.6426 29.1687 66.3916 29.1097 66.1338C28.8343 64.9306 28.5843 63.467 28.4009 61.9976C28.2311 60.6364 28.1133 59.2292 28.0905 57.986C19.6483 61.2998 12.4285 67.0752 12.4285 73.1398V84H84.4285V73.1398C84.4285 67.3322 77.8075 61.7898 69.8323 58.4202L69.8339 58.4752C69.8681 59.6956 69.7997 61.0946 69.6691 62.4426C69.5485 63.6896 69.3707 64.9346 69.1571 66H70.4285C71.1861 66 71.8785 66.428 72.2173 67.1056L74.2173 71.1056C74.3563 71.3832 74.4285 71.6896 74.4285 72V76C74.4285 77.1046 73.5331 78 72.4285 78H68.4285V74H70.4285V72.4722L69.1925 70H63.6645L62.4285 72.4722V74H64.4285V78H60.4285C59.3239 78 58.4285 77.1046 58.4285 76V72C58.4285 71.6896 58.5007 71.3832 58.6397 71.1056L60.6397 67.1056C60.9785 66.428 61.6709 66 62.4285 66H65.0589C65.1023 65.8282 65.1465 65.6376 65.1907 65.4288C65.3907 64.4858 65.5683 63.2912 65.6879 62.0574C65.8073 60.822 65.8639 59.596 65.8355 58.5874C65.8213 58.0822 65.7867 57.6626 65.7369 57.3398C65.6933 57.0562 65.6493 56.9254 65.6399 56.8974C65.6399 56.8972 65.6399 56.8976 65.6399 56.8974C65.6381 56.8918 65.6375 56.8902 65.6391 56.8932C65.6389 56.8928 65.6393 56.8936 65.6391 56.8932L65.6463 56.8912C64.5775 56.5596 63.5011 56.2696 62.4285 56.0252C61.4229 55.7962 60.3835 57.1804 59.9271 58.0474H51.7987C50.0183 58.0478 49.1125 58.0476 48.2221 58.0474H48.1911C47.2813 58.0472 46.3761 58.047 44.5563 58.0474H36.4285C36.3727 57.9414 36.3157 57.8278 36.2567 57.7102C35.8335 56.8662 35.3111 55.8242 34.4285 56.0252C33.6587 56.2006 32.8871 56.3994 32.1177 56.6202C32.0953 56.9164 32.0843 57.2696 32.0869 57.675C32.0939 58.7808 32.1997 60.1358 32.3703 61.5024C32.5405 62.8664 32.7691 64.1944 33.0087 65.2412C33.0783 65.545 33.1467 65.8158 33.2123 66.0508C36.1557 66.4348 38.4285 68.952 38.4285 72C38.4285 75.3138 35.7423 78 32.4285 78C29.1147 78 26.4285 75.3138 26.4285 72Z" fill="#8F3F97"/>
<path d="M34.4285 72C34.4285 73.1484 33.5053 74.0294 32.4285 74.0294C31.3517 74.0294 30.4285 73.1484 30.4285 72C30.4285 70.8516 31.3517 69.9706 32.4285 69.9706C33.5053 69.9706 34.4285 70.8516 34.4285 72Z" fill="#8F3F97"/>
</svg>
