<svg width="97" height="96" viewBox="0 0 97 96" fill="none" xmlns="http://www.w3.org/2000/svg">
<path fill-rule="evenodd" clip-rule="evenodd" d="M14.1043 44.3766C17.8622 40.1226 23.5654 35.2492 30.8864 31.9322C27.05 36.1864 24.7144 41.8204 24.7144 48C24.7144 54.1796 27.05 59.8136 30.8864 64.0678C23.5654 60.7508 17.8622 55.8774 14.1043 51.6234C12.251 49.5256 12.251 46.4744 14.1043 44.3766ZM11.1065 41.7284C17.9223 34.0126 30.877 24.1854 48.358 24.0026C48.4766 24.0008 48.5954 24 48.7144 24H48.7726H48.8538C66.5856 24 79.7207 33.94 86.601 41.7284C89.7904 45.339 89.7904 50.661 86.601 54.2716C79.7207 62.06 66.5856 72 48.8538 72H48.7726H48.7144C48.5954 72 48.4766 71.9992 48.358 71.9974C30.877 71.8146 17.9223 61.9874 11.1065 54.2716C7.917 50.661 7.91698 45.339 11.1065 41.7284ZM48.7712 28C48.6498 28.0004 48.5286 28.001 48.4076 28.0024C37.5034 28.1662 28.7144 37.0568 28.7144 48C28.7144 58.9432 37.5034 67.8338 48.4076 67.9976C48.5286 67.999 48.6498 67.9996 48.7712 68C59.7908 67.9694 68.7144 59.0268 68.7144 48C68.7144 36.9732 59.7908 28.0306 48.7712 28ZM72.7144 48C72.7144 54.2818 70.301 59.9998 66.3508 64.2776C73.898 60.9588 79.7652 55.968 83.603 51.6234C85.4564 49.5256 85.4564 46.4744 83.603 44.3766C79.7652 40.032 73.898 35.0412 66.3508 31.7224C70.301 36.0002 72.7144 41.7182 72.7144 48ZM48.8536 60C55.481 60 60.8536 54.6274 60.8536 48C60.8536 46.1474 60.4338 44.393 59.6842 42.8264C58.9602 43.5514 57.9594 44 56.8538 44C54.6446 44 52.8538 42.2092 52.8538 40C52.8538 38.8944 53.3024 37.8936 54.0274 37.1696C52.4608 36.4198 50.7062 36 48.8536 36C42.2262 36 36.8536 41.3726 36.8536 48C36.8536 54.6274 42.2262 60 48.8536 60Z" fill="#8F3F97"/>
</svg>
