<svg width="97" height="96" viewBox="0 0 97 96" fill="none" xmlns="http://www.w3.org/2000/svg">
<path d="M40.7862 12H48.7862V17.2877C51.3308 17.1327 53.7972 17.2809 56.0134 17.7487C46.6126 21.4488 42.2874 30.9576 41.5792 32.5148L41.5356 32.6102C39.2384 32.2614 36.7496 31.9714 34.3946 31.993C31.9678 32.1998 29.6132 32.5584 25.7354 34.7426C25.1886 35.129 24.4514 35.7628 23.4496 36.7292C23.3768 36.6768 23.2988 36.6282 23.1968 36.5644C23.1152 36.5134 23.0178 36.4528 22.8954 36.3728C22.3416 36.011 21.533 35.5214 20.547 35.0324C18.5159 34.0246 16.0243 33.1652 13.5825 33.1652V25.4086C17.8046 25.4086 21.6006 26.842 24.191 28.1272C25.0896 28.573 25.8782 29.0186 26.5308 29.4146C27.1082 28.1822 27.87 27.036 28.7808 25.9792L24.3876 19.0854L31.4296 14.5124L35.4826 20.8726C37.1518 20.0118 38.9422 19.2975 40.7862 18.7362V12Z" fill="#8F3F97"/>
<path d="M62.2991 29.382C59.3837 30.7334 56.8601 32.9548 54.5849 37.2308C54.5849 37.2308 49.5371 34.9224 45.4419 33.7226C48.5849 27.3506 52.2423 23.7654 57.6357 21.2654C62.8529 18.847 69.0769 18.2278 76.4707 18.4833L76.1207 28.0002C69.2985 27.7644 65.3905 27.949 62.2991 29.382Z" fill="#8F3F97"/>
<path d="M27.3476 38.439C12.8223 51.395 33.5726 83.785 50.1732 83.785C66.7736 83.785 89.632 51.4238 72.9988 36.5882C72.615 36.2458 72.279 35.9378 71.967 35.6518C70.5922 34.3912 69.6772 33.5524 67.1404 32.044C62.0358 32.044 58.9596 37.1502 57.5592 40.261C57.488 40.419 57.4002 40.5664 57.2986 40.7016L54.0702 49.6828L52.9068 53.8592C52.784 54.3002 52.816 54.7698 52.9978 55.19L54.3566 58.3304L61.3926 57.5138L61.8538 61.487L55.2364 62.2552L55.6664 68.5588L51.6758 68.831L51.1392 60.9674L49.3268 56.7784C48.7814 55.518 48.685 54.1086 49.0534 52.7858L49.0882 52.661L45.0202 54.5006L42.3604 61.2242L38.6408 59.7528L40.7474 54.428L34.3264 52.9152L35.2436 49.0218L43.2546 50.9092L50.5676 47.6018L53.0268 40.7608C46.6908 37.784 33.6794 32.7912 27.3476 38.439Z" fill="#8F3F97"/>
</svg>
