<svg width="97" height="96" viewBox="0 0 97 96" fill="none" xmlns="http://www.w3.org/2000/svg">
<path d="M14.6304 25.448C13.0375 26.905 12.5381 28.682 13.5154 30.257C14.7811 32.2966 16.2242 34.0188 17.502 35.351C16.4045 35.4402 15.4331 35.824 14.7107 36.5238C14.4243 36.8014 14.1912 37.1148 14.0098 37.457C12.7455 36.073 11.3743 34.3642 10.1391 32.374C7.74832 28.5212 9.5751 24.6638 11.9522 22.4896C13.1616 21.3832 14.6572 20.5428 16.181 20.1864C17.6862 19.8344 19.4895 19.9089 20.9307 21.0702C24.0731 23.6022 25.6761 23.9376 26.7362 24.0308C26.9346 24.0482 27.1626 24.053 27.4167 24.0586C28.5394 24.083 30.1707 24.1184 31.9877 25.2894L29.8397 28.6566C29.0259 28.1322 28.6421 28.1198 27.7573 28.0916C27.4022 28.0802 26.9664 28.0662 26.3896 28.0156C24.3624 27.8374 22.0359 27.0872 18.4419 24.1912C18.2798 24.0606 17.8781 23.8964 17.0828 24.0824C16.3062 24.264 15.4059 24.7386 14.6304 25.448Z" fill="#8F3F97"/>
<path fill-rule="evenodd" clip-rule="evenodd" d="M26.725 40.2854C30.0682 43.3832 31.0007 47.6168 28.8075 49.7416C26.6146 51.8662 22.1263 51.0776 18.7831 47.9798C15.4398 44.8822 14.5073 40.6486 16.7004 38.5238C18.8935 36.399 23.3816 37.1878 26.725 40.2854ZM23.8599 43.0614C25.0316 44.147 25.644 45.3146 25.8336 46.1758C25.9389 46.6534 25.9011 46.907 25.8671 47.017C25.7519 47.0516 25.4848 47.093 24.9787 47.004C24.0656 46.8436 22.8199 46.2896 21.6482 45.204C20.4765 44.1184 19.8641 42.9508 19.6744 42.0896C19.5693 41.612 19.6069 41.3582 19.641 41.2484C19.7562 41.2136 20.0231 41.1722 20.5294 41.2612C21.4425 41.4216 22.6882 41.9756 23.8599 43.0614ZM25.8376 47.0826C25.8366 47.0842 25.8364 47.085 25.8366 47.0852C25.8372 47.0856 25.8412 47.0802 25.8472 47.0684C25.8456 47.0704 25.8442 47.0722 25.843 47.0738C25.8426 47.0744 25.8434 47.0734 25.843 47.0738C25.841 47.077 25.8384 47.081 25.8376 47.0826ZM25.9208 46.997C25.9319 46.989 25.9381 46.986 25.9383 46.9866C25.9387 46.9872 25.9333 46.9912 25.9208 46.997ZM19.6656 41.1906C19.6702 41.184 19.6719 41.1804 19.6715 41.1802C19.6709 41.1798 19.6668 41.1852 19.6609 41.197C19.6627 41.1946 19.6643 41.1926 19.6656 41.1906ZM19.5872 41.2684C19.5762 41.2764 19.57 41.2792 19.5697 41.2788C19.5693 41.2782 19.5748 41.2742 19.5872 41.2684Z" fill="#8F3F97"/>
<path d="M84.1243 30.257C85.1016 28.682 84.6022 26.905 83.0093 25.448C82.2339 24.7386 81.3336 24.264 80.5569 24.0824C79.7616 23.8964 79.3599 24.0606 79.198 24.1912C75.6039 27.0872 73.2774 27.8374 71.2501 28.0156C70.6733 28.0662 70.2376 28.0802 69.8825 28.0916C68.9977 28.1198 68.6139 28.1322 67.8001 28.6566L65.6521 25.2894C67.469 24.1184 69.1003 24.083 70.2231 24.0586C70.4772 24.053 70.7052 24.0482 70.9035 24.0308C71.9636 23.9376 73.5667 23.6022 76.7091 21.0702C78.1502 19.9089 79.9536 19.8344 81.4588 20.1864C82.9826 20.5428 84.4781 21.3832 85.6875 22.4896C88.0646 24.6638 89.8915 28.5212 87.5007 32.374C86.2395 34.4062 84.8366 36.1448 83.5503 37.5438C83.3631 37.1678 83.1151 36.8246 82.8048 36.5238C82.1076 35.8484 81.1784 35.4674 80.1277 35.3614C81.408 34.0278 82.8553 32.302 84.1243 30.257Z" fill="#8F3F97"/>
<path fill-rule="evenodd" clip-rule="evenodd" d="M70.7906 40.2854C67.4474 43.3832 66.5149 47.6168 68.708 49.7416C70.901 51.8662 75.3892 51.0776 78.7324 47.9798C82.0758 44.8822 83.0082 40.6486 80.8152 38.5238C78.622 36.399 74.134 37.1878 70.7906 40.2854ZM73.6557 43.0614C72.484 44.147 71.8716 45.3146 71.682 46.1758C71.5767 46.6534 71.6145 46.907 71.6485 47.017C71.7637 47.0516 72.0307 47.093 72.5369 47.004C73.4499 46.8436 74.6957 46.2896 75.8674 45.204C77.039 44.1184 77.6515 42.9508 77.8411 42.0896C77.9463 41.612 77.9087 41.3582 77.8745 41.2484C77.7593 41.2136 77.4925 41.1722 76.9861 41.2612C76.0731 41.4216 74.8274 41.9756 73.6557 43.0614ZM71.6726 47.0738C71.6776 47.081 71.6794 47.085 71.679 47.0852C71.6784 47.0856 71.6744 47.0802 71.6684 47.0684C71.67 47.0704 71.6714 47.0722 71.6726 47.0738ZM71.586 46.991L71.5948 46.997L71.5888 46.994L71.5817 46.99C71.5785 46.9882 71.5771 46.9868 71.5773 46.9866M77.8441 41.1802C77.8435 41.1804 77.8464 41.1864 77.8546 41.197C77.8488 41.1852 77.8447 41.1798 77.8441 41.1802ZM77.9284 41.2684C77.9394 41.2764 77.9455 41.2792 77.9459 41.2788C77.9463 41.2782 77.9408 41.2742 77.9284 41.2684Z" fill="#8F3F97"/>
<path fill-rule="evenodd" clip-rule="evenodd" d="M36.9054 24.9486C39.5391 23.0358 43.4434 22 48.8401 22C54.2081 22 58.11 22.944 60.7423 24.7278C63.4872 26.588 64.6457 29.2222 64.7317 31.9762C64.8145 34.623 63.9161 37.3174 62.7363 39.6176C61.5461 41.938 59.9788 44.0344 58.5035 45.5246C57.5899 46.4476 56.9311 47.9792 56.5266 50.2016C56.1271 52.3972 56.0201 54.9984 55.9944 57.8182C55.9864 58.7026 55.9864 59.6152 55.9866 60.5378C55.987 62.4836 55.9872 64.4766 55.911 66.3414C55.7984 69.0978 55.5147 71.8422 54.7298 74.1396C54.5816 74.573 54.272 75.2262 53.5847 75.648C52.8134 76.1218 52.0231 76.035 51.5072 75.86C51.0386 75.7012 50.6648 75.434 50.427 75.2458C50.1691 75.0416 49.9262 74.8116 49.7235 74.6122C49.5593 74.4506 49.4194 74.309 49.2933 74.1808C49.1099 73.995 48.9551 73.838 48.7957 73.6916C48.589 73.8556 48.4045 74.0184 48.1885 74.2092C48.0217 74.3562 47.8365 74.5198 47.6077 74.7132C47.2169 75.0438 46.4925 75.6498 45.6728 75.887C45.1895 76.0268 44.4597 76.1022 43.7205 75.709C43.0007 75.3262 42.6344 74.6902 42.4485 74.1928C41.6018 71.9258 41.1618 69.124 40.8861 66.269C40.6619 63.9468 40.5369 61.4698 40.4167 59.0856L40.4165 59.081C40.3883 58.5204 40.3602 57.9638 40.3312 57.4168C40.1766 54.4952 39.9941 51.8166 39.6171 49.633C39.2214 47.3422 38.6796 46.0648 38.145 45.5246C36.9375 44.305 35.5925 42.3276 34.5757 40.0796C33.559 37.8318 32.7805 35.1154 32.9188 32.4254C33.0612 29.6576 34.1858 26.9236 36.9054 24.9486ZM48.4232 73.3886C48.4169 73.3854 48.4159 73.3844 48.4208 73.3872L48.4232 73.3886Z" fill="#8F3F97"/>
</svg>
