<svg width="97" height="96" viewBox="0 0 97 96" fill="none" xmlns="http://www.w3.org/2000/svg">
<path d="M40.3569 24C44.7751 24 48.3569 20.4182 48.3569 16C48.3569 11.5817 44.7751 8 40.3569 8C35.9385 8 32.3569 11.5817 32.3569 16C32.3569 20.4182 35.9385 24 40.3569 24Z" fill="#8F3F97"/>
<path d="M66.3572 20C66.3572 18.8954 65.4618 18 64.3572 18C63.2526 18 62.3572 18.8954 62.3572 20V24.6056L64.693 28.1094C65.3058 29.0284 66.5476 29.2768 67.4666 28.6642C68.3856 28.0514 68.634 26.8096 68.0214 25.8906L66.3572 23.3944V20Z" fill="#8F3F97"/>
<path fill-rule="evenodd" clip-rule="evenodd" d="M64.3572 36C70.9846 36 76.3572 30.6274 76.3572 24C76.3572 17.3726 70.9846 12 64.3572 12C57.7298 12 52.3572 17.3726 52.3572 24C52.3572 30.6274 57.7298 36 64.3572 36ZM64.3572 32C68.7754 32 72.3572 28.4182 72.3572 24C72.3572 19.5817 68.7754 16 64.3572 16C59.939 16 56.3572 19.5817 56.3572 24C56.3572 28.4182 59.939 32 64.3572 32Z" fill="#8F3F97"/>
<path fill-rule="evenodd" clip-rule="evenodd" d="M31.8582 54.1234C32.6658 54.7696 33.647 55.0518 34.604 54.9924C34.6256 57.6306 34.5286 60.3612 34.4226 63.3484C34.2392 68.5152 34.0286 74.4492 34.357 82V84C34.357 86.2092 36.1478 88 38.357 88C40.5662 88 42.357 86.2092 42.357 84V82L45.2812 66.6158C45.6796 66.494 46.1778 66.3294 46.7412 66.1162C48.0944 65.6042 49.948 64.766 51.7096 63.485C53.4622 62.2104 55.3404 60.3376 56.3662 57.6998C57.4334 54.9556 57.4004 51.8382 56.0708 48.5144C53.7756 42.7762 49.5854 37.8216 46.1854 34.4216C44.4546 32.6908 42.8586 31.2942 41.6902 30.3262C41.1048 29.8412 40.6236 29.4608 40.282 29.1972C40.1112 29.0654 39.9752 28.9624 39.8784 28.89L39.763 28.8042L39.7284 28.7788L39.717 28.7704L39.7096 28.765L39.424 29.1576L39.425 29.1558L39.4268 29.1532C39.7092 28.7648 39.7096 28.765 39.7096 28.765C39.026 28.2678 38.2014 28 37.356 28H33.357C31.8292 28 30.6116 28.6634 29.8902 29.1444C29.1008 29.6708 28.3916 30.3282 27.7916 30.9568C26.585 32.221 25.4108 33.8036 24.427 35.2466C23.425 36.7164 22.5336 38.17 21.8976 39.2464C21.578 39.7874 21.3188 40.2398 21.138 40.5598C21.0474 40.72 20.9764 40.8474 20.927 40.9366L20.8692 41.0412L20.853 41.0708L20.8454 41.0846C19.9164 42.7876 20.3434 44.9116 21.8582 46.1234L31.8582 54.1234ZM33.7924 45.4258L29.5576 42.038C30.0016 41.3196 30.505 40.5336 31.0368 39.7534C31.3588 39.2812 31.6804 38.8272 31.9958 38.4024C32.816 40.8848 33.3932 43.1936 33.7924 45.4258Z" fill="#8F3F97"/>
</svg>
