<svg width="40" height="41" viewBox="0 0 40 41" fill="none" xmlns="http://www.w3.org/2000/svg">
<g clip-path="url(#clip0_277_21240)">
<path d="M27.3907 10.4266L26.4157 5.05469C26.3114 4.47836 26.008 3.95696 25.5586 3.58145C25.1091 3.20593 24.542 3.00015 23.9564 3H16.0439C15.4582 3.00015 14.8911 3.20593 14.4416 3.58145C13.9922 3.95696 13.6888 4.47836 13.5845 5.05469L12.6095 10.4266C11.0259 11.5858 9.73803 13.1021 8.85023 14.8524C7.96243 16.6026 7.49976 18.5375 7.49976 20.5C7.49976 22.4625 7.96243 24.3974 8.85023 26.1476C9.73803 27.8979 11.0259 29.4142 12.6095 30.5734L13.5845 35.9453C13.6888 36.5216 13.9922 37.043 14.4416 37.4186C14.8911 37.7941 15.4582 37.9998 16.0439 38H23.9564C24.542 37.9998 25.1091 37.7941 25.5586 37.4186C26.008 37.043 26.3114 36.5216 26.4157 35.9453L27.3907 30.5734C28.9743 29.4142 30.2622 27.8979 31.15 26.1476C32.0378 24.3974 32.5005 22.4625 32.5005 20.5C32.5005 18.5375 32.0378 16.6026 31.15 14.8524C30.2622 13.1021 28.9743 11.5858 27.3907 10.4266ZM16.0439 5.5H23.9564L24.5673 8.86719C21.6323 7.71098 18.3679 7.71098 15.4329 8.86719L16.0439 5.5ZM23.9564 35.5H16.0439L15.4329 32.1328C18.3679 33.289 21.6323 33.289 24.5673 32.1328L23.9564 35.5ZM26.2501 21.75H20.0001C19.6686 21.75 19.3506 21.6183 19.1162 21.3839C18.8818 21.1495 18.7501 20.8315 18.7501 20.5V14.25C18.7501 13.9185 18.8818 13.6005 19.1162 13.3661C19.3506 13.1317 19.6686 13 20.0001 13C20.3316 13 20.6496 13.1317 20.884 13.3661C21.1184 13.6005 21.2501 13.9185 21.2501 14.25V19.25H26.2501C26.5816 19.25 26.8996 19.3817 27.134 19.6161C27.3684 19.8505 27.5001 20.1685 27.5001 20.5C27.5001 20.8315 27.3684 21.1495 27.134 21.3839C26.8996 21.6183 26.5816 21.75 26.2501 21.75Z" fill="#495057"/>
</g>
<defs>
<clipPath id="clip0_277_21240">
<rect width="40" height="40" fill="white" transform="translate(0 0.5)"/>
</clipPath>
</defs>
</svg>
